<svg width="24" height="24" viewBox="0 0 24 24" fill="none" xmlns="http://www.w3.org/2000/svg">
<path fill-rule="evenodd" clip-rule="evenodd" d="M4.11612 4.12088C4.35054 3.88646 4.66848 3.75476 5 3.75476H7.25C7.58152 3.75476 7.89946 3.88646 8.13388 4.12088C8.3683 4.3553 8.5 4.67324 8.5 5.00476V7.25476C8.5 7.58628 8.3683 7.90422 8.13388 8.13864C7.89946 8.37306 7.58152 8.50476 7.25 8.50476H5C4.66848 8.50476 4.35054 8.37306 4.11612 8.13864C3.8817 7.90422 3.75 7.58628 3.75 7.25476V5.00476C3.75 4.67324 3.8817 4.3553 4.11612 4.12088ZM5 1.75476C4.13805 1.75476 3.3114 2.09717 2.7019 2.70666C2.09241 3.31616 1.75 4.14281 1.75 5.00476V7.25476C1.75 8.11671 2.09241 8.94336 2.7019 9.55286C3.3114 10.1624 4.13805 10.5048 5 10.5048H7.25C8.11195 10.5048 8.9386 10.1624 9.5481 9.55286C10.1576 8.94336 10.5 8.11671 10.5 7.25476V5.00476C10.5 4.14281 10.1576 3.31616 9.5481 2.70666C8.9386 2.09717 8.11195 1.75476 7.25 1.75476H5ZM15.3661 4.12088C15.6005 3.88646 15.9185 3.75476 16.25 3.75476H18.5C18.8315 3.75476 19.1495 3.88646 19.3839 4.12088C19.6183 4.3553 19.75 4.67324 19.75 5.00476V7.25476C19.75 7.58628 19.6183 7.90422 19.3839 8.13864C19.1495 8.37306 18.8315 8.50476 18.5 8.50476H16.25C15.9185 8.50476 15.6005 8.37306 15.3661 8.13864C15.1317 7.90422 15 7.58628 15 7.25476V5.00476C15 4.67324 15.1317 4.3553 15.3661 4.12088ZM16.25 1.75476C15.388 1.75476 14.5614 2.09717 13.9519 2.70666C13.3424 3.31616 13 4.14281 13 5.00476V7.25476C13 8.11671 13.3424 8.94336 13.9519 9.55286C14.5614 10.1624 15.388 10.5048 16.25 10.5048H18.5C19.362 10.5048 20.1886 10.1624 20.7981 9.55286C21.4076 8.94336 21.75 8.11671 21.75 7.25476V5.00476C21.75 4.14281 21.4076 3.31616 20.7981 2.70666C20.1886 2.09717 19.362 1.75476 18.5 1.75476H16.25ZM4.11612 15.3709C4.35054 15.1365 4.66848 15.0048 5 15.0048H7.25C7.58152 15.0048 7.89946 15.1365 8.13388 15.3709C8.3683 15.6053 8.5 15.9232 8.5 16.2548V18.5048C8.5 18.8363 8.3683 19.1542 8.13388 19.3886C7.89946 19.6231 7.58152 19.7548 7.25 19.7548H5C4.66848 19.7548 4.35054 19.6231 4.11612 19.3886C3.8817 19.1542 3.75 18.8363 3.75 18.5048V16.2548C3.75 15.9232 3.8817 15.6053 4.11612 15.3709ZM5 13.0048C4.13805 13.0048 3.3114 13.3472 2.7019 13.9567C2.09241 14.5662 1.75 15.3928 1.75 16.2548V18.5048C1.75 19.3667 2.09241 20.1934 2.7019 20.8029C3.3114 21.4124 4.13805 21.7548 5 21.7548H7.25C8.11195 21.7548 8.9386 21.4123 9.5481 20.8029C10.1576 20.1934 10.5 19.3667 10.5 18.5048V16.2548C10.5 15.3928 10.1576 14.5662 9.5481 13.9567C8.9386 13.3472 8.11195 13.0048 7.25 13.0048H5ZM16.75 18.7548C17.8546 18.7548 18.75 17.8593 18.75 16.7548C18.75 15.6502 17.8546 14.7548 16.75 14.7548C15.6454 14.7548 14.75 15.6502 14.75 16.7548C14.75 17.8593 15.6454 18.7548 16.75 18.7548ZM20.75 16.7548C20.75 17.4951 20.5489 18.1885 20.1983 18.7832L21.9563 20.5374C22.3473 20.9275 22.348 21.5607 21.9579 21.9516C21.5678 22.3426 20.9346 22.3433 20.5437 21.9532L18.7855 20.1989C18.1892 20.552 17.4933 20.7548 16.75 20.7548C14.5409 20.7548 12.75 18.9639 12.75 16.7548C12.75 14.5456 14.5409 12.7548 16.75 12.7548C18.9591 12.7548 20.75 14.5456 20.75 16.7548Z" fill="#9D9FA0"/>
</svg>
