<svg width="24" height="24" viewBox="0 0 24 24" fill="none" xmlns="http://www.w3.org/2000/svg">
<path fill-rule="evenodd" clip-rule="evenodd" d="M6.75 2.75476C6.75 2.20248 6.30228 1.75476 5.75 1.75476C5.19772 1.75476 4.75 2.20248 4.75 2.75476V4.75476H2.75C2.19772 4.75476 1.75 5.20248 1.75 5.75476C1.75 6.30705 2.19772 6.75476 2.75 6.75476H4.75V16.7548H2.75C2.19772 16.7548 1.75 17.2025 1.75 17.7548C1.75 18.307 2.19772 18.7548 2.75 18.7548H4.75V20.7548C4.75 21.307 5.19772 21.7548 5.75 21.7548C6.30228 21.7548 6.75 21.307 6.75 20.7548V18.7548H10.75C11.3023 18.7548 11.75 18.307 11.75 17.7548C11.75 17.2025 11.3023 16.7548 10.75 16.7548H6.75V6.75476H16.75V10.7548C16.75 11.307 17.1977 11.7548 17.75 11.7548C18.3023 11.7548 18.75 11.307 18.75 10.7548V6.75476H20.75C21.3023 6.75476 21.75 6.30705 21.75 5.75476C21.75 5.20248 21.3023 4.75476 20.75 4.75476H18.75V2.75476C18.75 2.20248 18.3023 1.75476 17.75 1.75476C17.1977 1.75476 16.75 2.20248 16.75 2.75476V4.75476H6.75V2.75476ZM16.75 18.7548C17.8546 18.7548 18.75 17.8593 18.75 16.7548C18.75 15.6502 17.8546 14.7548 16.75 14.7548C15.6454 14.7548 14.75 15.6502 14.75 16.7548C14.75 17.8593 15.6454 18.7548 16.75 18.7548ZM20.75 16.7548C20.75 17.4951 20.5489 18.1885 20.1983 18.7832L21.9563 20.5374C22.3473 20.9275 22.348 21.5607 21.9579 21.9516C21.5678 22.3426 20.9346 22.3433 20.5437 21.9532L18.7855 20.1989C18.1892 20.552 17.4933 20.7548 16.75 20.7548C14.5409 20.7548 12.75 18.9639 12.75 16.7548C12.75 14.5456 14.5409 12.7548 16.75 12.7548C18.9591 12.7548 20.75 14.5456 20.75 16.7548Z" fill="#00A5DB"/>
</svg>
