<svg width="24" height="24" viewBox="0 0 24 24" fill="none" xmlns="http://www.w3.org/2000/svg">
<path d="M3 5.25C3 4.65326 3.23705 4.08097 3.65901 3.65901C4.08097 3.23705 4.65326 3 5.25 3H7.5C8.09674 3 8.66903 3.23705 9.09099 3.65901C9.51295 4.08097 9.75 4.65326 9.75 5.25V7.5C9.75 8.09674 9.51295 8.66903 9.09099 9.09099C8.66903 9.51295 8.09674 9.75 7.5 9.75H5.25C4.65326 9.75 4.08097 9.51295 3.65901 9.09099C3.23705 8.66903 3 8.09674 3 7.5V5.25ZM14.25 5.25C14.25 4.65326 14.4871 4.08097 14.909 3.65901C15.331 3.23705 15.9033 3 16.5 3H18.75C19.3467 3 19.919 3.23705 20.341 3.65901C20.7629 4.08097 21 4.65326 21 5.25V7.5C21 8.09674 20.7629 8.66903 20.341 9.09099C19.919 9.51295 19.3467 9.75 18.75 9.75H16.5C15.9033 9.75 15.331 9.51295 14.909 9.09099C14.4871 8.66903 14.25 8.09674 14.25 7.5V5.25ZM3 16.5C3 15.9033 3.23705 15.331 3.65901 14.909C4.08097 14.4871 4.65326 14.25 5.25 14.25H7.5C8.09674 14.25 8.66903 14.4871 9.09099 14.909C9.51295 15.331 9.75 15.9033 9.75 16.5V18.75C9.75 19.3467 9.51295 19.919 9.09099 20.341C8.66903 20.7629 8.09674 21 7.5 21H5.25C4.65326 21 4.08097 20.7629 3.65901 20.341C3.23705 19.919 3 19.3467 3 18.75V16.5ZM14.25 16.5C14.25 15.9033 14.4871 15.331 14.909 14.909C15.331 14.4871 15.9033 14.25 16.5 14.25H18.75C19.3467 14.25 19.919 14.4871 20.341 14.909C20.7629 15.331 21 15.9033 21 16.5V18.75C21 19.3467 20.7629 19.919 20.341 20.341C19.919 20.7629 19.3467 21 18.75 21H16.5C15.9033 21 15.331 20.7629 14.909 20.341C14.4871 19.919 14.25 19.3467 14.25 18.75V16.5Z" stroke="#9D9FA0" stroke-width="2" stroke-linecap="round" stroke-linejoin="round"/>
</svg>
