<svg width="24" height="24" viewBox="0 0 24 24" fill="none" xmlns="http://www.w3.org/2000/svg">
<path fill-rule="evenodd" clip-rule="evenodd" d="M6 2H14L20 8V20C20 20.5304 19.7893 21.0391 19.4142 21.4142C19.0391 21.7893 18.5304 22 18 22H6C5.46957 22 4.96086 21.7893 4.58579 21.4142C4.21071 21.0391 4 20.5304 4 20V4C4 3.46957 4.21071 2.96086 4.58579 2.58579C4.96086 2.21071 5.46957 2 6 2ZM8.202 16.61C8.733 16.61 9.189 16.48 9.498 16.19C9.734 15.965 9.864 15.634 9.865 15.242C9.865 14.852 9.693 14.521 9.439 14.319C9.172 14.106 8.776 14 8.219 14C7.81112 13.9944 7.40345 14.0218 7 14.082V18.018H7.894V16.592C7.99613 16.6051 8.09904 16.6111 8.202 16.61ZM11.465 18.06C12.246 18.06 12.885 17.894 13.305 17.545C13.689 17.22 13.968 16.693 13.968 15.93C13.968 15.225 13.708 14.734 13.293 14.426C12.909 14.136 12.417 14 11.66 14C11.2521 13.9963 10.8446 14.0241 10.441 14.083V18C10.666 18.03 10.997 18.06 11.465 18.06ZM15.468 14.77H17V14.03H14.562V18.019H15.468V16.415H16.9V15.681H15.468V14.77ZM13 9H14H18L13 4V9ZM7.895 14.716C7.959 14.698 8.083 14.68 8.267 14.68C8.717 14.68 8.971 14.9 8.971 15.266C8.971 15.675 8.676 15.917 8.197 15.917C8.066 15.917 7.971 15.912 7.895 15.894V14.716ZM11.347 14.728C11.424 14.71 11.554 14.692 11.754 14.692C12.53 14.692 13.015 15.13 13.009 15.96C13.009 16.912 12.477 17.362 11.66 17.356C11.548 17.356 11.424 17.356 11.347 17.338V14.728Z" fill="#9D9FA0"/>
</svg>
