<svg width="24" height="24" viewBox="0 0 24 24" fill="none" xmlns="http://www.w3.org/2000/svg">
<path fill-rule="evenodd" clip-rule="evenodd" d="M10.4054 5.17367C11.5921 4.91106 12.8277 4.94679 13.9961 5.27735C15.1645 5.60789 16.226 6.2219 17.0824 7.05992C17.0932 7.07044 17.1042 7.08072 17.1154 7.09075L19.2514 9H17C16.4477 9 16 9.44772 16 10C16 10.5523 16.4477 11 17 11H22C22.5523 11 23 10.5523 23 10V5C23 4.44772 22.5523 4 22 4C21.4477 4 21 4.44772 21 5V7.8805L18.4646 5.61422C17.3699 4.54845 16.02 3.7714 14.5406 3.35288C13.0537 2.93225 11.4826 2.8869 9.97329 3.22091C8.46389 3.55493 7.0635 4.2579 5.90346 5.26631C4.74328 6.27484 3.86107 7.55631 3.34148 8.9924C3.15357 9.51174 3.42225 10.0851 3.94159 10.273C4.46093 10.4609 5.03426 10.1922 5.22216 9.67286C5.62468 8.56035 6.30969 7.5632 7.21557 6.77573C8.12159 5.98815 9.21878 5.43626 10.4054 5.17367ZM20.6585 15.0076C20.8464 14.4883 20.5777 13.9149 20.0584 13.727C19.5391 13.5391 18.9657 13.8078 18.7778 14.3271C18.3753 15.4397 17.6903 16.4368 16.7844 17.2243C15.8784 18.0119 14.7812 18.5637 13.5946 18.8263C12.4079 19.0889 11.1723 19.0532 10.0039 18.7227C8.83546 18.3921 7.77398 17.7781 6.91757 16.9401C6.90682 16.9296 6.89583 16.9193 6.88461 16.9093L4.74863 15H7C7.55228 15 8 14.5523 8 14C8 13.4477 7.55228 13 7 13H2C1.44772 13 1 13.4477 1 14V19C1 19.5523 1.44772 20 2 20C2.55228 20 3 19.5523 3 19V16.1195L5.53541 18.3858C6.63014 19.4515 7.97999 20.2286 9.45943 20.6471C10.9463 21.0678 12.5174 21.1131 14.0267 20.7791C15.5361 20.4451 16.9365 19.7421 18.0965 18.7337C19.2567 17.7252 20.1389 16.4437 20.6585 15.0076Z" fill="#9D9FA0"/>
</svg>
