<svg width="20" height="20" viewBox="0 0 20 20" fill="none" xmlns="http://www.w3.org/2000/svg">
<path fill-rule="evenodd" clip-rule="evenodd" d="M14 6H4C3.71733 6.00067 3.48 5.905 3.288 5.713C3.096 5.521 3 5.28334 3 5C2.99933 4.71734 3.095 4.48 3.287 4.288C3.479 4.096 3.71667 4 4 4H14C14.2827 3.99934 14.52 4.095 14.712 4.287C14.904 4.479 15 4.71667 15 5C15.0007 5.28267 14.905 5.52 14.713 5.712C14.521 5.904 14.2833 6 14 6ZM11.462 18.537C12.4373 19.5123 13.6167 20 15 20C16.3827 20.0007 17.5617 19.5133 18.537 18.538C19.5123 17.5627 20 16.3833 20 15C20.0007 13.6173 19.5133 12.4383 18.538 11.463C17.5627 10.4877 16.3833 10 15 10C13.6173 9.99934 12.4383 10.4867 11.463 11.462C10.4877 12.4373 10 13.6167 10 15C9.99933 16.3827 10.4867 17.5617 11.462 18.537ZM0 2V18.875L0.35 18.65L1.15 17.85C1.25 17.75 1.36667 17.7 1.5 17.7C1.63333 17.7 1.75 17.75 1.85 17.85L2.65 18.65C2.75 18.75 2.86667 18.8 3 18.8C3.13333 18.8 3.25 18.75 3.35 18.65L4.15 17.85C4.25 17.75 4.36667 17.7 4.5 17.7C4.63333 17.7 4.75 17.75 4.85 17.85L5.65 18.65C5.75 18.75 5.86667 18.8 6 18.8C6.13333 18.8 6.25 18.75 6.35 18.65L7.15 17.85C7.25 17.75 7.36667 17.7 7.5 17.7C7.63333 17.7 7.75 17.75 7.85 17.85L8.65 18.65C8.716 18.716 8.795 18.77 8.887 18.812C8.979 18.854 9.06667 18.8667 9.15 18.85C8.86733 18.4333 8.63833 17.9917 8.463 17.525C8.28767 17.0583 8.15833 16.5667 8.075 16.05H2V2H16V8.075C16.35 8.125 16.6917 8.2 17.025 8.3C17.3583 8.4 17.6833 8.525 18 8.675V2C18.0007 1.45067 17.805 0.980003 17.413 0.588003C17.021 0.196003 16.55 1.68903e-06 16 1.68903e-06H2C1.45067 -0.000663251 0.98 0.195003 0.588 0.587003C0.196 0.979003 0 1.45 0 2ZM8.075 14H4C3.71733 14.0007 3.48 13.905 3.288 13.713C3.096 13.521 3 13.2833 3 13C2.99933 12.7173 3.095 12.48 3.287 12.288C3.479 12.096 3.71667 12 4 12H8.675C8.525 12.3167 8.4 12.6417 8.3 12.975C8.2 13.3083 8.125 13.65 8.075 14ZM10.1 10H4C3.71733 10.0007 3.48 9.905 3.288 9.713C3.096 9.521 3 9.28334 3 9C2.99933 8.71734 3.095 8.48 3.287 8.288C3.479 8.096 3.71667 8 4 8H14.9894C14.044 8.00067 13.1519 8.17967 12.313 8.537C11.471 8.89567 10.7333 9.38334 10.1 10ZM16.855 13.1428C17.0503 13.338 17.0503 13.6546 16.855 13.8499L15.7078 14.9971L16.855 16.1442C17.0503 16.3395 17.0503 16.6561 16.855 16.8514C16.6598 17.0466 16.3432 17.0466 16.1479 16.8514L15.0007 15.7042L13.8536 16.8514C13.6583 17.0466 13.3417 17.0466 13.1464 16.8514C12.9512 16.6561 12.9512 16.3395 13.1464 16.1442L14.2936 14.9971L13.1464 13.8499C12.9512 13.6546 12.9512 13.338 13.1464 13.1428C13.3417 12.9475 13.6583 12.9475 13.8536 13.1428L15.0007 14.29L16.1479 13.1428C16.3432 12.9475 16.6598 12.9475 16.855 13.1428Z" fill="#FA5E5E"/>
</svg>
