<svg width="248" height="248" viewBox="0 0 248 248" fill="none" xmlns="http://www.w3.org/2000/svg">
<path d="M62 124H93M155 124V155M124 186H155M124 124.114L124.103 124M186 124.114L186.103 124M124 155.114L124.103 155M186 155.114L186.103 155M186 186.114L186.103 186M124 93.1137L124.103 93M124 62.1137L124.103 62M186 31H217V62M186 217H217V186M62 31H31V62M62 217H31V186M93 68.2V86.8C93 88.4443 92.3468 90.0213 91.1841 91.1841C90.0213 92.3468 88.4443 93 86.8 93H68.2C66.5557 93 64.9787 92.3468 63.8159 91.1841C62.6532 90.0213 62 88.4443 62 86.8V68.2C62 66.5557 62.6532 64.9787 63.8159 63.8159C64.9787 62.6532 66.5557 62 68.2 62H86.8C88.4443 62 90.0213 62.6532 91.1841 63.8159C92.3468 64.9787 93 66.5557 93 68.2ZM93 161.2V179.8C93 181.444 92.3468 183.021 91.1841 184.184C90.0213 185.347 88.4443 186 86.8 186H68.2C66.5557 186 64.9787 185.347 63.8159 184.184C62.6532 183.021 62 181.444 62 179.8V161.2C62 159.556 62.6532 157.979 63.8159 156.816C64.9787 155.653 66.5557 155 68.2 155H86.8C88.4443 155 90.0213 155.653 91.1841 156.816C92.3468 157.979 93 159.556 93 161.2ZM186 68.2V86.8C186 88.4443 185.347 90.0213 184.184 91.1841C183.021 92.3468 181.444 93 179.8 93H161.2C159.556 93 157.979 92.3468 156.816 91.1841C155.653 90.0213 155 88.4443 155 86.8V68.2C155 66.5557 155.653 64.9787 156.816 63.8159C157.979 62.6532 159.556 62 161.2 62H179.8C181.444 62 183.021 62.6532 184.184 63.8159C185.347 64.9787 186 66.5557 186 68.2Z" stroke="#006093" stroke-opacity="0.6" stroke-width="12" stroke-linecap="round" stroke-linejoin="round"/>
</svg>
