<svg width="24" height="24" viewBox="0 0 24 24" fill="none" xmlns="http://www.w3.org/2000/svg">
<path d="M6 12H9M15 12V15M12 18H15M12 12.011L12.01 12M18 12.011L18.01 12M12 15.011L12.01 15M18 15.011L18.01 15M18 18.011L18.01 18M12 9.011L12.01 9M12 6.011L12.01 6M18 3H21V6M18 21H21V18M6 3H3V6M6 21H3V18M9 6.6V8.4C9 8.55913 8.93679 8.71174 8.82426 8.82426C8.71174 8.93679 8.55913 9 8.4 9H6.6C6.44087 9 6.28826 8.93679 6.17574 8.82426C6.06321 8.71174 6 8.55913 6 8.4V6.6C6 6.44087 6.06321 6.28826 6.17574 6.17574C6.28826 6.06321 6.44087 6 6.6 6H8.4C8.55913 6 8.71174 6.06321 8.82426 6.17574C8.93679 6.28826 9 6.44087 9 6.6ZM9 15.6V17.4C9 17.5591 8.93679 17.7117 8.82426 17.8243C8.71174 17.9368 8.55913 18 8.4 18H6.6C6.44087 18 6.28826 17.9368 6.17574 17.8243C6.06321 17.7117 6 17.5591 6 17.4V15.6C6 15.4409 6.06321 15.2883 6.17574 15.1757C6.28826 15.0632 6.44087 15 6.6 15H8.4C8.55913 15 8.71174 15.0632 8.82426 15.1757C8.93679 15.2883 9 15.4409 9 15.6ZM18 6.6V8.4C18 8.55913 17.9368 8.71174 17.8243 8.82426C17.7117 8.93679 17.5591 9 17.4 9H15.6C15.4409 9 15.2883 8.93679 15.1757 8.82426C15.0632 8.71174 15 8.55913 15 8.4V6.6C15 6.44087 15.0632 6.28826 15.1757 6.17574C15.2883 6.06321 15.4409 6 15.6 6H17.4C17.5591 6 17.7117 6.06321 17.8243 6.17574C17.9368 6.28826 18 6.44087 18 6.6Z" stroke="white" stroke-width="1.5" stroke-linecap="round" stroke-linejoin="round"/>
</svg>
