<svg width="24" height="24" viewBox="0 0 24 24" fill="none" xmlns="http://www.w3.org/2000/svg">
<path d="M17.275 18.125L16.85 17.7C16.7 17.55 16.521 17.475 16.313 17.475C16.105 17.475 15.9257 17.55 15.775 17.7C15.625 17.85 15.55 18.025 15.55 18.225C15.55 18.425 15.625 18.6 15.775 18.75L16.75 19.725C16.9 19.875 17.075 19.95 17.275 19.95C17.475 19.95 17.65 19.875 17.8 19.725L20.225 17.35C20.375 17.2 20.45 17.0207 20.45 16.812C20.45 16.6033 20.375 16.4243 20.225 16.275C20.075 16.125 19.8957 16.05 19.687 16.05C19.4783 16.05 19.2993 16.125 19.15 16.275L17.275 18.125ZM7 9H17C17.2833 9 17.521 8.904 17.713 8.712C17.905 8.52 18.0007 8.28267 18 8C18 7.71667 17.904 7.479 17.712 7.287C17.52 7.095 17.2827 6.99934 17 7H7C6.71667 7 6.479 7.096 6.287 7.288C6.095 7.48 5.99933 7.71734 6 8C6 8.28334 6.096 8.521 6.288 8.713C6.48 8.905 6.71733 9.00067 7 9ZM18 23C16.6167 23 15.4373 22.5123 14.462 21.537C13.4867 20.5617 12.9993 19.3827 13 18C13 16.6167 13.4877 15.4373 14.463 14.462C15.4383 13.4867 16.6173 12.9993 18 13C19.3833 13 20.5627 13.4877 21.538 14.463C22.5133 15.4383 23.0007 16.6173 23 18C23 19.3833 22.5123 20.5627 21.537 21.538C20.5617 22.5133 19.3827 23.0007 18 23ZM3 21.875V5C3 4.45 3.196 3.979 3.588 3.587C3.98 3.195 4.45067 2.99934 5 3H19C19.55 3 20.021 3.196 20.413 3.588C20.805 3.98 21.0007 4.45067 21 5V11.675C20.6833 11.525 20.3583 11.4 20.025 11.3C19.6917 11.2 19.35 11.125 19 11.075V5H5V19.05H11.075C11.1583 19.5667 11.2877 20.0583 11.463 20.525C11.6383 20.9917 11.8673 21.4333 12.15 21.85C12.0667 21.8667 11.979 21.854 11.887 21.812C11.795 21.77 11.716 21.716 11.65 21.65L10.85 20.85C10.75 20.75 10.6333 20.7 10.5 20.7C10.3667 20.7 10.25 20.75 10.15 20.85L9.35 21.65C9.25 21.75 9.13333 21.8 9 21.8C8.86667 21.8 8.75 21.75 8.65 21.65L7.85 20.85C7.75 20.75 7.63333 20.7 7.5 20.7C7.36667 20.7 7.25 20.75 7.15 20.85L6.35 21.65C6.25 21.75 6.13333 21.8 6 21.8C5.86667 21.8 5.75 21.75 5.65 21.65L4.85 20.85C4.75 20.75 4.63333 20.7 4.5 20.7C4.36667 20.7 4.25 20.75 4.15 20.85L3.35 21.65L3 21.875ZM7 17H11.075C11.125 16.65 11.2 16.3083 11.3 15.975C11.4 15.6417 11.525 15.3167 11.675 15H7C6.71667 15 6.479 15.096 6.287 15.288C6.095 15.48 5.99933 15.7173 6 16C6 16.2833 6.096 16.521 6.288 16.713C6.48 16.905 6.71733 17.0007 7 17ZM7 13H13.1C13.7333 12.3833 14.471 11.8957 15.313 11.537C16.155 11.1783 17.0507 10.9993 18 11H7C6.71667 11 6.479 11.096 6.287 11.288C6.095 11.48 5.99933 11.7173 6 12C6 12.2833 6.096 12.521 6.288 12.713C6.48 12.905 6.71733 13.0007 7 13Z" fill="#006093"/>
</svg>
