<svg width="229" height="229" viewBox="0 0 229 229" fill="none" xmlns="http://www.w3.org/2000/svg">
<mask id="path-1-inside-1_391_33955" fill="white">
<path d="M0 5C0 2.23857 2.23858 0 5 0H60.9831C63.7445 0 65.983 2.23858 65.983 5V60.9831C65.983 63.7445 63.7445 65.983 60.983 65.983H5C2.23857 65.983 0 63.7445 0 60.983V5Z"/>
</mask>
<path d="M-5 5C-5 -0.522847 -0.522847 -5 5 -5H55.983C61.5059 -5 65.983 -0.522847 65.983 5C65.983 5 63.7445 5 60.983 5H5H-5ZM65.983 65.983H0H65.983ZM5 65.983C-0.522847 65.983 -5 61.5059 -5 55.983V5C-5 -0.522847 -0.522847 -5 5 -5V5V60.983C5 63.7445 5 65.983 5 65.983ZM65.983 0V65.983V0Z" fill="#40CB67" mask="url(#path-1-inside-1_391_33955)"/>
<mask id="path-3-inside-2_391_33955" fill="white">
<path d="M229 5C229 2.23857 226.761 0 224 0H168.017C165.256 0 163.017 2.23858 163.017 5V60.9831C163.017 63.7445 165.256 65.983 168.017 65.983H224C226.761 65.983 229 63.7445 229 60.983V5Z"/>
</mask>
<path d="M234 5C234 -0.522847 229.523 -5 224 -5H173.017C167.494 -5 163.017 -0.522847 163.017 5C163.017 5 165.256 5 168.017 5H224H234ZM163.017 65.983H229H163.017ZM224 65.983C229.523 65.983 234 61.5059 234 55.983V5C234 -0.522847 229.523 -5 224 -5V5V60.983C224 63.7445 224 65.983 224 65.983ZM163.017 0V65.983V0Z" fill="#40CB67" mask="url(#path-3-inside-2_391_33955)"/>
<mask id="path-5-inside-3_391_33955" fill="white">
<path d="M0 224C0 226.761 2.23858 229 5 229H60.9831C63.7445 229 65.983 226.761 65.983 224V168.017C65.983 165.256 63.7445 163.017 60.983 163.017H5C2.23857 163.017 0 165.256 0 168.017V224Z"/>
</mask>
<path d="M-5 224C-5 229.523 -0.522847 234 5 234H55.983C61.5059 234 65.983 229.523 65.983 224C65.983 224 63.7445 224 60.983 224H5H-5ZM65.983 163.017H0H65.983ZM5 163.017C-0.522847 163.017 -5 167.494 -5 173.017V224C-5 229.523 -0.522847 234 5 234V224V168.017C5 165.256 5 163.017 5 163.017ZM65.983 229V163.017V229Z" fill="#40CB67" mask="url(#path-5-inside-3_391_33955)"/>
<mask id="path-7-inside-4_391_33955" fill="white">
<path d="M229 224C229 226.761 226.761 229 224 229H168.017C165.256 229 163.017 226.761 163.017 224V168.017C163.017 165.256 165.256 163.017 168.017 163.017H224C226.761 163.017 229 165.256 229 168.017V224Z"/>
</mask>
<path d="M234 224C234 229.523 229.523 234 224 234H173.017C167.494 234 163.017 229.523 163.017 224C163.017 224 165.256 224 168.017 224H224H234ZM163.017 163.017H229H163.017ZM224 163.017C229.523 163.017 234 167.494 234 173.017V224C234 229.523 229.523 234 224 234V224V168.017C224 165.256 224 163.017 224 163.017ZM163.017 229V163.017V229Z" fill="#40CB67" mask="url(#path-7-inside-4_391_33955)"/>
<path d="M174.833 69L91.4167 152.417L53.5 114.5" stroke="#40CB67" stroke-width="10" stroke-linecap="round" stroke-linejoin="round"/>
</svg>
