<svg width="104" height="105" viewBox="0 0 104 105" fill="none" xmlns="http://www.w3.org/2000/svg">
<path d="M40.9296 100.223C36.2549 99.1433 31.7653 97.3571 27.61 94.9237M62.4128 4.22302C73.0908 6.70627 82.6245 12.8074 89.4529 21.5276C96.2814 30.2477 100 41.0702 100 52.223C100 63.3759 96.2814 74.1983 89.4529 82.9185C82.6245 91.6386 73.0908 97.7398 62.4128 100.223M11.8145 80.0758C8.88477 75.7416 6.65962 70.9553 5.22454 65.9006M4 44.0198C4.85933 38.8244 6.51353 33.9024 8.83372 29.3906L9.74138 27.7226M24.3177 11.6388C29.3429 8.11629 34.9805 5.59962 40.9296 4.22302M62.4128 63.1607L40.9296 41.2853M40.9296 63.1607L62.4128 41.2853" stroke="#FA5E5E" stroke-width="8" stroke-linecap="round" stroke-linejoin="round"/>
</svg>
