<svg width="96" height="96" viewBox="0 0 96 96" fill="none" xmlns="http://www.w3.org/2000/svg">
<path d="M51.8627 83.8805C48.3136 84.2656 44.7267 84.1173 41.2215 83.4403M44.1641 12.2773C52.2751 11.4092 60.4406 13.3207 67.3236 17.6988C74.2067 22.0768 79.3994 28.662 82.0516 36.3762C84.7038 44.0904 84.6584 52.4765 81.9228 60.1615C79.1872 67.8465 73.9235 74.3751 66.9935 78.6784M26.5657 76.9952C23.4716 74.7068 20.7662 71.935 18.5534 68.7863M12.4876 53.9483C11.8573 50.1467 11.8519 46.3417 12.4131 42.6592L12.6557 41.2857M19.0971 26.6312C21.7987 22.9779 25.1707 19.8721 29.0334 17.4794" stroke="#00A5DB" stroke-width="6" stroke-linecap="round" stroke-linejoin="round"/>
</svg>
