<svg width="96" height="96" viewBox="0 0 96 96" fill="none" xmlns="http://www.w3.org/2000/svg">
<path d="M40.0001 83.108C36.5185 82.3183 33.1748 81.0119 30.0801 79.232M56.0001 12.892C63.9527 14.7083 71.0531 19.1708 76.1387 25.5489C81.2243 31.9269 83.9938 39.8426 83.9938 48C83.9938 56.1574 81.2243 64.0732 76.1387 70.4512C71.0531 76.8293 63.9527 81.2917 56.0001 83.108M18.3161 68.372C16.1341 65.2019 14.4769 61.7011 13.4081 58.004M12.4961 42C13.1361 38.2 14.3681 34.6 16.0961 31.3L16.7721 30.08M27.6281 18.316C31.3707 15.7396 35.5694 13.8989 40.0001 12.892" stroke="#40CB67" stroke-width="6" stroke-linecap="round" stroke-linejoin="round"/>
<path d="M36 48L44 56L60 40" stroke="#40CB67" stroke-width="6" stroke-linecap="round" stroke-linejoin="round"/>
</svg>
